<svg width="155" height="58" viewBox="0 0 155 58" fill="none" xmlns="http://www.w3.org/2000/svg">
<path d="M9.6 23.384C7.888 23.384 6.376 23.072 5.064 22.448C3.768 21.808 2.76 20.92 2.04 19.784C1.336 18.648 0.984 17.344 0.984 15.872C0.984 13.92 1.432 12.184 2.328 10.664C3.24 9.144 4.496 7.96 6.096 7.112C7.712 6.248 9.544 5.816 11.592 5.816C13.208 5.816 14.64 6.112 15.888 6.704C17.136 7.28 18.064 8.104 18.672 9.176L14.592 12.368C13.84 11.056 12.72 10.4 11.232 10.4C10.352 10.4 9.568 10.616 8.88 11.048C8.192 11.48 7.656 12.088 7.272 12.872C6.888 13.64 6.696 14.52 6.696 15.512C6.696 16.504 7.008 17.304 7.632 17.912C8.272 18.504 9.112 18.8 10.152 18.8C11.576 18.8 12.824 18.152 13.896 16.856L17.232 20.048C16.256 21.248 15.144 22.104 13.896 22.616C12.664 23.128 11.232 23.384 9.6 23.384ZM34.9078 9.872L32.2918 23H27.1798L27.4198 21.8C26.4278 22.76 25.2438 23.24 23.8678 23.24C22.9718 23.24 22.1078 23 21.2758 22.52C20.4438 22.04 19.7638 21.344 19.2358 20.432C18.7238 19.504 18.4678 18.416 18.4678 17.168C18.4678 15.76 18.7798 14.48 19.4038 13.328C20.0438 12.176 20.8998 11.272 21.9718 10.616C23.0438 9.96 24.2038 9.632 25.4518 9.632C27.2118 9.632 28.4598 10.176 29.1958 11.264L29.4838 9.872H34.9078ZM23.9638 16.904C23.9638 17.528 24.1318 18.032 24.4678 18.416C24.8198 18.784 25.2998 18.968 25.9078 18.968C26.6118 18.968 27.1798 18.696 27.6118 18.152C28.0598 17.608 28.2838 16.88 28.2838 15.968C28.2838 15.344 28.1078 14.848 27.7558 14.48C27.4198 14.096 26.9478 13.904 26.3398 13.904C25.6358 13.904 25.0598 14.176 24.6118 14.72C24.1798 15.264 23.9638 15.992 23.9638 16.904ZM38.7045 5.192H44.1285L40.5765 23H35.1525L38.7045 5.192ZM51.1886 23.24C49.7646 23.24 48.5086 22.992 47.4206 22.496C46.3486 21.984 45.5166 21.272 44.9246 20.36C44.3326 19.448 44.0366 18.384 44.0366 17.168C44.0366 15.744 44.3886 14.464 45.0926 13.328C45.7966 12.176 46.7806 11.272 48.0446 10.616C49.3086 9.96 50.7326 9.632 52.3166 9.632C53.8686 9.632 55.2206 9.976 56.3726 10.664C57.5406 11.352 58.3566 12.288 58.8206 13.472L54.2126 15.584C53.7966 14.464 53.0766 13.904 52.0526 13.904C51.3166 13.904 50.7086 14.176 50.2286 14.72C49.7646 15.264 49.5326 15.968 49.5326 16.832C49.5326 17.472 49.7086 17.992 50.0606 18.392C50.4286 18.776 50.9406 18.968 51.5966 18.968C52.1406 18.968 52.6046 18.84 52.9886 18.584C53.3886 18.312 53.7406 17.88 54.0446 17.288L58.0046 19.592C57.3486 20.76 56.4286 21.664 55.2446 22.304C54.0766 22.928 52.7246 23.24 51.1886 23.24ZM75.6748 9.872L73.0588 23H67.9468L68.2108 21.68C67.6508 22.208 67.0348 22.6 66.3628 22.856C65.6908 23.112 65.0108 23.24 64.3228 23.24C62.9148 23.24 61.7868 22.856 60.9388 22.088C60.0908 21.32 59.6668 20.216 59.6668 18.776C59.6668 18.232 59.7228 17.68 59.8348 17.12L61.2748 9.872H66.6988L65.3788 16.472C65.3148 16.856 65.2828 17.128 65.2828 17.288C65.2828 18.216 65.7228 18.68 66.6028 18.68C67.8508 18.68 68.6428 17.848 68.9788 16.184L70.2508 9.872H75.6748ZM79.4726 5.192H84.8966L81.3446 23H75.9206L79.4726 5.192ZM101.269 9.872L98.6527 23H93.5407L93.7807 21.8C92.7887 22.76 91.6047 23.24 90.2287 23.24C89.3327 23.24 88.4687 23 87.6367 22.52C86.8047 22.04 86.1247 21.344 85.5967 20.432C85.0847 19.504 84.8287 18.416 84.8287 17.168C84.8287 15.76 85.1407 14.48 85.7647 13.328C86.4047 12.176 87.2607 11.272 88.3327 10.616C89.4047 9.96 90.5647 9.632 91.8127 9.632C93.5727 9.632 94.8207 10.176 95.5567 11.264L95.8447 9.872H101.269ZM90.3247 16.904C90.3247 17.528 90.4927 18.032 90.8287 18.416C91.1807 18.784 91.6607 18.968 92.2687 18.968C92.9727 18.968 93.5407 18.696 93.9727 18.152C94.4207 17.608 94.6447 16.88 94.6447 15.968C94.6447 15.344 94.4687 14.848 94.1167 14.48C93.7807 14.096 93.3087 13.904 92.7007 13.904C91.9967 13.904 91.4207 14.176 90.9727 14.72C90.5407 15.264 90.3247 15.992 90.3247 16.904ZM108.569 17.84C108.537 18.032 108.521 18.16 108.521 18.224C108.521 18.832 108.857 19.136 109.529 19.136C109.881 19.136 110.281 19.032 110.729 18.824L111.353 22.472C110.425 22.984 109.241 23.24 107.801 23.24C106.313 23.24 105.137 22.888 104.273 22.184C103.425 21.464 103.001 20.456 103.001 19.16C103.001 18.744 103.049 18.312 103.145 17.864L103.817 14.552H101.993L102.785 10.592H104.585L105.329 6.92H110.753L110.009 10.592H112.697L111.905 14.552H109.217L108.569 17.84ZM115.648 9.872H121.048L118.432 23H113.032L115.648 9.872ZM118.936 8.816C118.008 8.816 117.264 8.576 116.704 8.096C116.144 7.6 115.864 6.984 115.864 6.248C115.864 5.4 116.184 4.696 116.824 4.136C117.464 3.576 118.296 3.296 119.32 3.296C120.248 3.296 120.992 3.528 121.552 3.992C122.112 4.44 122.392 5.032 122.392 5.768C122.392 6.68 122.072 7.416 121.432 7.976C120.808 8.536 119.976 8.816 118.936 8.816ZM129.021 23.24C127.581 23.24 126.325 22.992 125.253 22.496C124.181 21.984 123.349 21.272 122.757 20.36C122.181 19.448 121.893 18.384 121.893 17.168C121.893 15.744 122.245 14.464 122.949 13.328C123.653 12.176 124.621 11.272 125.853 10.616C127.101 9.96 128.509 9.632 130.077 9.632C131.517 9.632 132.773 9.888 133.845 10.4C134.917 10.896 135.741 11.6 136.317 12.512C136.909 13.424 137.205 14.488 137.205 15.704C137.205 17.128 136.853 18.416 136.149 19.568C135.445 20.704 134.469 21.6 133.221 22.256C131.989 22.912 130.589 23.24 129.021 23.24ZM129.333 18.968C130.037 18.968 130.605 18.696 131.037 18.152C131.485 17.608 131.709 16.88 131.709 15.968C131.709 15.344 131.533 14.848 131.181 14.48C130.845 14.096 130.373 13.904 129.765 13.904C129.061 13.904 128.485 14.176 128.037 14.72C127.605 15.264 127.389 15.992 127.389 16.904C127.389 17.528 127.557 18.032 127.893 18.416C128.245 18.784 128.725 18.968 129.333 18.968ZM149.416 9.632C150.84 9.632 151.976 10.016 152.824 10.784C153.688 11.552 154.12 12.656 154.12 14.096C154.12 14.64 154.064 15.192 153.952 15.752L152.512 23H147.088L148.408 16.4C148.472 16.016 148.504 15.752 148.504 15.608C148.504 14.664 148.048 14.192 147.136 14.192C145.856 14.192 145.048 15.024 144.712 16.688L143.44 23H138.016L140.632 9.872H145.744L145.48 11.192C146.04 10.664 146.656 10.272 147.328 10.016C148.016 9.76 148.712 9.632 149.416 9.632ZM8.208 39.472L7.632 42.352H14.64L13.776 46.624H6.792L5.712 52H0.048L3.408 35.2H17.064L16.2 39.472H8.208ZM18.1869 38.872H23.5869L20.9709 52H15.5709L18.1869 38.872ZM21.4749 37.816C20.5469 37.816 19.8029 37.576 19.2429 37.096C18.6829 36.6 18.4029 35.984 18.4029 35.248C18.4029 34.4 18.7229 33.696 19.3629 33.136C20.0029 32.576 20.8349 32.296 21.8589 32.296C22.7869 32.296 23.5309 32.528 24.0909 32.992C24.6509 33.44 24.9309 34.032 24.9309 34.768C24.9309 35.68 24.6109 36.416 23.9709 36.976C23.3469 37.536 22.5149 37.816 21.4749 37.816ZM35.2556 38.632C36.6796 38.632 37.8156 39.016 38.6636 39.784C39.5276 40.552 39.9596 41.656 39.9596 43.096C39.9596 43.64 39.9036 44.192 39.7916 44.752L38.3516 52H32.9276L34.2476 45.4C34.3116 45.016 34.3436 44.752 34.3436 44.608C34.3436 43.664 33.8876 43.192 32.9756 43.192C31.6956 43.192 30.8876 44.024 30.5516 45.688L29.2796 52H23.8556L26.4716 38.872H31.5836L31.3196 40.192C31.8796 39.664 32.4956 39.272 33.1676 39.016C33.8556 38.76 34.5516 38.632 35.2556 38.632ZM58.4616 38.872L55.8456 52H50.7336L50.9736 50.8C49.9816 51.76 48.7976 52.24 47.4216 52.24C46.5256 52.24 45.6616 52 44.8296 51.52C43.9976 51.04 43.3176 50.344 42.7896 49.432C42.2776 48.504 42.0216 47.416 42.0216 46.168C42.0216 44.76 42.3336 43.48 42.9576 42.328C43.5976 41.176 44.4536 40.272 45.5256 39.616C46.5976 38.96 47.7576 38.632 49.0056 38.632C50.7656 38.632 52.0136 39.176 52.7496 40.264L53.0376 38.872H58.4616ZM47.5176 45.904C47.5176 46.528 47.6856 47.032 48.0216 47.416C48.3736 47.784 48.8536 47.968 49.4616 47.968C50.1656 47.968 50.7336 47.696 51.1656 47.152C51.6136 46.608 51.8376 45.88 51.8376 44.968C51.8376 44.344 51.6616 43.848 51.3096 43.48C50.9736 43.096 50.5016 42.904 49.8936 42.904C49.1896 42.904 48.6136 43.176 48.1656 43.72C47.7336 44.264 47.5176 44.992 47.5176 45.904ZM70.1062 38.632C71.5302 38.632 72.6662 39.016 73.5142 39.784C74.3782 40.552 74.8102 41.656 74.8102 43.096C74.8102 43.64 74.7542 44.192 74.6422 44.752L73.2022 52H67.7782L69.0982 45.4C69.1622 45.016 69.1942 44.752 69.1942 44.608C69.1942 43.664 68.7382 43.192 67.8262 43.192C66.5462 43.192 65.7382 44.024 65.4022 45.688L64.1302 52H58.7062L61.3222 38.872H66.4342L66.1702 40.192C66.7302 39.664 67.3462 39.272 68.0182 39.016C68.7062 38.76 69.4022 38.632 70.1062 38.632ZM84.0002 52.24C82.5762 52.24 81.3202 51.992 80.2322 51.496C79.1602 50.984 78.3282 50.272 77.7362 49.36C77.1442 48.448 76.8482 47.384 76.8482 46.168C76.8482 44.744 77.2002 43.464 77.9042 42.328C78.6082 41.176 79.5922 40.272 80.8562 39.616C82.1202 38.96 83.5442 38.632 85.1282 38.632C86.6802 38.632 88.0322 38.976 89.1842 39.664C90.3522 40.352 91.1682 41.288 91.6322 42.472L87.0242 44.584C86.6082 43.464 85.8882 42.904 84.8642 42.904C84.1282 42.904 83.5202 43.176 83.0402 43.72C82.5762 44.264 82.3442 44.968 82.3442 45.832C82.3442 46.472 82.5202 46.992 82.8722 47.392C83.2402 47.776 83.7522 47.968 84.4082 47.968C84.9522 47.968 85.4162 47.84 85.8002 47.584C86.2002 47.312 86.5522 46.88 86.8562 46.288L90.8162 48.592C90.1602 49.76 89.2402 50.664 88.0562 51.304C86.8882 51.928 85.5362 52.24 84.0002 52.24ZM106.785 44.416C106.785 45.136 106.689 45.896 106.497 46.696H97.3052C97.4172 47.24 97.6812 47.632 98.0972 47.872C98.5132 48.112 99.0892 48.232 99.8252 48.232C100.913 48.232 101.865 47.928 102.681 47.32L104.937 50.608C103.337 51.696 101.425 52.24 99.2012 52.24C97.7772 52.24 96.5132 51.992 95.4092 51.496C94.3212 51 93.4732 50.296 92.8652 49.384C92.2732 48.472 91.9772 47.4 91.9772 46.168C91.9772 44.728 92.3132 43.44 92.9852 42.304C93.6732 41.152 94.6332 40.256 95.8652 39.616C97.0972 38.96 98.5132 38.632 100.113 38.632C101.489 38.632 102.681 38.88 103.689 39.376C104.697 39.856 105.465 40.536 105.993 41.416C106.521 42.28 106.785 43.28 106.785 44.416ZM99.8732 42.328C99.2812 42.328 98.7852 42.488 98.3852 42.808C98.0012 43.112 97.7132 43.536 97.5212 44.08H101.817C101.817 43.536 101.641 43.112 101.289 42.808C100.937 42.488 100.465 42.328 99.8732 42.328Z" fill="url(#paint0_linear_62_2)"/>
<path d="M144.444 35H126.556C125.15 35 124 36.15 124 37.5556V55.4444C124 56.85 125.15 58 126.556 58H144.444C145.85 58 147 56.85 147 55.4444V37.5556C147 36.15 145.85 35 144.444 35ZM144.444 55.4444H126.556V37.5556H144.444V55.4444Z" fill="#2B8B3B"/>
<path d="M134.542 41.0311H128.153V42.9478H134.542V41.0311Z" fill="#2B8B3B"/>
<path d="M143.167 51.2916H136.778V53.2083H143.167V51.2916Z" fill="#2B8B3B"/>
<path d="M143.167 48.0972H136.778V50.0139H143.167V48.0972Z" fill="#2B8B3B"/>
<path d="M130.389 54.1666H132.306V51.6111H134.861V49.6944H132.306V47.1389H130.389V49.6944H127.833V51.6111H130.389V54.1666Z" fill="#2B8B3B"/>
<path d="M138.171 45.1584L139.972 43.3567L141.774 45.1584L143.128 43.8039L141.327 41.9895L143.128 40.1878L141.774 38.8334L139.972 40.635L138.171 38.8334L136.816 40.1878L138.618 41.9895L136.816 43.8039L138.171 45.1584Z" fill="#2B8B3B"/>
<defs>
<linearGradient id="paint0_linear_62_2" x1="77.5" y1="0" x2="77.5" y2="58" gradientUnits="userSpaceOnUse">
<stop stop-color="#2B8B3B"/>
<stop offset="1" stop-color="#7BC144"/>
</linearGradient>
</defs>
</svg>
