<svg width="22" height="29" viewBox="0 0 32 29" fill="none" xmlns="http://www.w3.org/2000/svg">
<path d="M1.65597 14.756L16 2.324L30.344 14.756C30.5449 14.9264 30.805 15.0108 31.0678 14.9906C31.3305 14.9705 31.5747 14.8476 31.7474 14.6486C31.9201 14.4496 32.0074 14.1905 31.9903 13.9275C31.9732 13.6646 31.853 13.419 31.656 13.244L16.656 0.244005C16.4741 0.0863968 16.2416 -0.000366211 16.001 -0.000366211C15.7603 -0.000366211 15.5278 0.0863968 15.346 0.244005L9.99997 4.87601V3.00001C9.99997 2.46957 9.78926 1.96086 9.41418 1.58579C9.03911 1.21072 8.5304 1.00001 7.99997 1.00001C7.46954 1.00001 6.96083 1.21072 6.58576 1.58579C6.21068 1.96086 5.99997 2.46957 5.99997 3.00001V8.342L0.343971 13.244C0.143951 13.4183 0.0211277 13.6647 0.0023859 13.9294C-0.0163559 14.194 0.0705105 14.4553 0.243971 14.656C0.607971 15.072 1.23797 15.118 1.65597 14.756ZM12 19H20V29H26C26.5304 29 27.0391 28.7893 27.4142 28.4142C27.7893 28.0391 28 27.5304 28 27V17.198C28 16.598 27.732 16.032 27.268 15.652L17.268 7.45401C16.9107 7.16015 16.4625 6.99949 16 6.99949C15.5374 6.99949 15.0892 7.16015 14.732 7.45401L4.73197 15.652C4.50285 15.8392 4.31829 16.0751 4.19168 16.3425C4.06506 16.6099 3.99958 16.9021 3.99997 17.198V27C3.99997 27.5304 4.21068 28.0391 4.58576 28.4142C4.96083 28.7893 5.46954 29 5.99997 29H12V19Z" fill="#BDBDBD"/>
</svg>
